<?xml version="1.0" standalone="no"?>
<!DOCTYPE svg PUBLIC "-//W3C//DTD SVG 20010904//EN"
 "http://www.w3.org/TR/2001/REC-SVG-20010904/DTD/svg10.dtd">
<svg version="1.0" xmlns="http://www.w3.org/2000/svg"
 width="417.000000pt" height="417.000000pt" viewBox="0 0 417.000000 417.000000"
 preserveAspectRatio="xMidYMid meet">
<metadata>
Created by potrace 1.11, written by Peter Selinger 2001-2013
</metadata>
<g transform="translate(0.000000,417.000000) scale(0.100000,-0.100000)"
fill="#000000" stroke="none">
<path d="M1875 4019 c-27 -4 -66 -9 -85 -12 -156 -23 -376 -90 -527 -162 -613
-290 -1033 -874 -1110 -1545 -10 -83 -10 -378 0 -450 18 -135 45 -257 83 -375
47 -143 129 -316 209 -441 274 -427 687 -723 1180 -848 59 -15 82 -19 157 -31
188 -30 484 -28 653 4 291 54 618 194 806 345 14 12 41 32 59 46 265 196 520
555 639 903 22 63 76 297 86 372 11 80 14 384 4 460 -15 124 -18 139 -39 230
-114 492 -405 910 -830 1195 -109 73 -322 176 -453 219 -120 39 -200 58 -342
82 -81 13 -416 19 -490 8z"/>
</g>
</svg>
