<svg
  viewBox="-8 -8 80 80"
  version="1.1"
  xmlns="http://www.w3.org/2000/svg"
  xmlns:xlink="http://www.w3.org/1999/xlink"
  xml:space="preserve"
  xmlns:serif="http://www.serif.com/"
  style="fill-rule:evenodd;clip-rule:evenodd;stroke-linejoin:round;stroke-miterlimit:2;">
    <g transform="matrix(-0.0643515,0,0,0.0643515,52.5925,15.526)">
        <g id="HIGHLIGHT">
            <path d="M511.8,352L128,352L128,416L511.5,416L511.8,352ZM128,512L512,512L512,448L128.1,448L128,512ZM128,320L511.9,320L512,256L128,256L128,320ZM610.5,117L338.5,3.7C332.6,1.542 326.3,0.25 320,0C313.6,0.25 307.3,1.417 301.5,3.667L29.5,117C11.62,124.5 0,141.9 0,161.3L0,496C0,504.9 7.125,512 16,512L80,512C88.88,512 96,504.9 96,496L95.38,256C95.38,238.38 110,224 128.01,224L511.41,224C529.4,224 544,238.4 544,256L544,496C544,504.875 551.125,512 560,512L624,512C632.875,512 640,504.875 640,496L640,161.3C640,141.9 628.4,124.5 610.5,117Z"/>
        </g>
    </g>
</svg>
