<svg width="834" height="777" viewBox="0 0 834 777" fill="none" xmlns="http://www.w3.org/2000/svg">
<g opacity="0.2">
<path d="M1987.25 1C1872.72 79.1812 1752.98 150.793 1624.67 203.39C1583.07 220.444 1540.32 235.549 1495.87 242.307C1405.23 256.087 1313.32 234.567 1221.69 231.679C1105.31 228.008 988.275 255.607 885.266 309.744C807.759 350.483 720.556 409.573 632.879 424.402C553.229 437.873 467.545 364.578 397.01 335.98C324.764 306.691 243.96 300.453 167.662 315.519C127.691 323.414 88.8125 337.15 52.9653 356.55C18.6862 375.106 -11.1763 409.639 -51.8155 382.499C-65.2479 373.527 -74.534 359.703 -86.0782 348.402C-126.198 309.132 -196.358 306.062 -239.752 341.683" stroke="#2EA7E0" stroke-width="0.552088" stroke-miterlimit="10"/>
<path d="M1982.19 3.45148C1870.27 82.6817 1751.76 155.044 1624.16 207.448C1581.67 224.927 1538.02 239.574 1492.79 247.116C1438.22 256.142 1383.07 252.797 1327.75 248.038C1289.99 244.791 1252.15 240.883 1214.34 239.789C1139.65 237.636 1064.7 246.956 993.244 266.582C951.462 278.06 910.883 293.072 872.209 311.467C845.041 324.325 816.791 339.221 787.817 353.724C747.067 374.063 704.871 393.607 661.996 406.123C646.604 410.633 631.129 414.238 615.637 416.607C551.595 426.357 483.754 385.066 422.732 354.69C406.374 346.508 390.507 339.11 375.319 333.689C312.894 311.202 244.816 305.56 178.924 315.354C167.579 317.038 156.294 319.18 145.103 321.775C105.198 331.022 66.3535 345.962 30.1917 366.036C8.77615 377.928 -11.088 395.628 -32.9397 401.22C-46.3941 404.665 -60.5386 403.456 -76.2731 393.618C-90.0201 385.022 -99.8307 371.739 -111.806 360.824C-153.367 322.879 -224.089 319.533 -268.731 354.696" stroke="#2EA7E0" stroke-width="0.552088" stroke-miterlimit="10"/>
<path d="M1977.14 5.89685C1867.82 86.1816 1750.55 159.289 1623.65 211.5C1580.26 229.41 1535.71 243.599 1489.7 251.913C1434.43 261.773 1378.46 259.366 1322.27 255.27C1283.9 252.476 1245.42 248.893 1206.98 247.888C1131.04 245.89 1054.85 254.397 982.202 272.257C939.73 282.697 898.489 296.362 859.141 313.178C831.437 324.899 802.718 338.525 773.319 351.731C731.929 370.226 689.153 387.87 645.511 399.238C629.87 403.345 614.141 406.641 598.373 408.805C533.072 417.689 463.912 378.391 401.78 350.461C385.162 342.919 369.03 336.228 353.61 331.403C290.336 311.605 222.098 308.342 156.294 320.444C144.971 322.52 133.708 325.059 122.534 328.029C82.6897 338.63 43.8779 354.773 7.40692 375.526C-14.2018 387.826 -34.4028 405.614 -56.663 411.483C-70.3824 415.099 -84.7643 414.072 -100.742 404.742C-114.814 396.522 -125.138 383.785 -137.544 373.251C-180.541 336.631 -251.837 333.009 -297.716 367.708" stroke="#2EA7E0" stroke-width="0.552088" stroke-miterlimit="10"/>
<path d="M1972.1 8.34302C1865.38 89.6767 1749.33 163.541 1623.14 215.553C1578.87 233.888 1533.41 247.618 1486.63 256.717C1430.65 267.416 1373.86 265.942 1316.8 262.508C1277.82 260.173 1238.71 256.915 1199.63 255.988C1122.45 254.149 1045 261.84 971.177 277.928C928.009 287.335 886.15 299.757 846.085 314.885C817.873 325.54 788.651 337.818 758.838 349.732C716.802 366.383 673.458 382.129 629.048 392.343C613.164 396.047 597.17 399.034 581.137 400.999C514.572 409.016 444.032 371.877 380.851 346.221C363.957 339.359 347.587 333.308 331.925 329.101C267.844 311.887 199.396 311.108 133.692 325.523C122.385 327.997 111.144 330.923 99.9922 334.274C60.2143 346.227 21.4356 363.573 -15.3446 385.005C-37.1466 397.714 -57.6787 415.591 -80.353 421.736C-94.3374 425.529 -108.957 424.69 -125.183 415.851C-139.581 408.011 -150.419 395.81 -163.255 385.657C-207.692 350.362 -279.552 346.459 -326.678 380.705" stroke="#2EA7E0" stroke-width="0.552088" stroke-miterlimit="10"/>
<path d="M1967.04 10.7945C1862.93 93.1771 1748.12 167.792 1622.64 219.616C1577.46 238.382 1531.13 251.742 1483.55 261.525C1426.89 273.169 1369.27 272.523 1311.32 269.757C1271.74 267.874 1232 264.948 1192.28 264.104C1113.86 262.425 1035.16 269.304 960.146 283.62C916.288 291.99 873.766 303.098 833.028 316.613C804.28 326.153 774.589 337.134 744.351 347.762C701.675 362.569 657.75 376.415 612.573 385.475C596.441 388.776 580.188 391.454 563.89 393.215C496.066 400.365 424.195 365.268 359.91 342.003C342.751 335.792 326.139 330.409 310.233 326.821C245.357 312.191 176.694 313.897 111.078 330.619C99.7879 333.485 88.5694 336.803 77.4393 340.535C37.7275 353.84 -1.0235 372.39 -38.1128 394.496C-60.108 407.614 -80.9714 425.573 -104.06 431.999C-118.309 435.969 -133.171 435.317 -149.635 426.975C-164.364 419.517 -175.71 407.857 -188.976 398.085C-234.855 364.115 -307.284 359.935 -355.646 393.717" stroke="#2EA7E0" stroke-width="0.552088" stroke-miterlimit="10"/>
<path d="M1962 13.2399C1860.49 96.677 1746.91 172.043 1622.13 223.668C1576.06 242.859 1528.84 255.783 1480.47 266.323C1423.12 278.822 1364.66 279.093 1305.85 276.989C1265.66 275.565 1225.29 272.964 1184.93 272.197C1105.26 270.679 1025.31 276.741 949.115 289.29C904.562 296.627 861.383 306.41 819.971 318.318C790.694 326.738 760.549 336.504 729.864 345.763C686.575 358.831 642.033 370.563 596.104 378.579C579.718 381.439 563.217 383.846 546.643 385.403C477.554 391.685 404.364 358.626 338.969 337.763C321.551 332.203 304.685 327.489 288.536 324.518C222.871 312.455 153.987 316.662 88.4591 335.698C77.191 338.961 65.9946 342.666 54.8756 346.779C15.2301 361.442 -23.4934 381.196 -60.8919 403.975C-83.0803 417.501 -104.281 435.549 -127.777 442.251C-142.292 446.397 -157.397 445.934 -174.098 438.089C-189.159 431.011 -201.012 419.892 -214.709 410.501C-262.023 377.856 -335.02 373.4 -384.631 406.724" stroke="#2EA7E0" stroke-width="0.552088" stroke-miterlimit="10"/>
<path d="M1956.95 15.6914C1858.05 100.178 1745.7 176.294 1621.62 227.726C1574.66 247.348 1526.54 259.825 1477.39 271.132C1419.34 284.487 1360.06 285.668 1300.37 284.233C1259.58 283.261 1218.57 280.992 1177.58 280.307C1096.67 278.949 1015.47 284.2 938.085 294.971C892.841 301.27 848.994 309.734 806.914 320.036C777.101 327.334 746.488 335.82 715.383 343.775C671.448 355.016 626.331 364.816 579.636 371.695C563.007 374.146 546.24 376.255 529.401 377.602C459.054 383.018 384.544 351.996 318.034 333.529C300.356 328.621 283.247 324.568 266.844 322.227C200.395 312.732 131.285 319.439 65.8455 340.783C54.594 344.438 43.4197 348.534 32.3227 353.023C-7.25649 369.039 -45.9468 389.996 -83.66 413.455C-106.042 427.389 -127.573 445.525 -151.484 452.504C-166.258 456.827 -181.623 456.556 -198.555 449.202C-213.953 442.511 -226.309 431.922 -240.431 422.912C-289.186 391.592 -362.752 386.855 -413.599 419.726" stroke="#2EA7E0" stroke-width="0.552088" stroke-miterlimit="10"/>
<path d="M1951.9 18.1368C1855.59 103.672 1744.48 180.539 1621.11 231.778C1573.26 251.825 1524.24 263.855 1474.3 275.929C1415.56 290.134 1355.45 292.238 1294.89 291.465C1253.49 290.951 1211.85 289.008 1170.22 288.401C1088.07 287.203 1005.62 291.636 927.048 300.641C881.115 305.907 836.6 313.046 793.846 321.741C763.492 327.919 732.41 335.124 700.885 341.782C656.304 351.19 610.619 359.062 563.156 364.804C546.284 366.847 529.252 368.652 512.143 369.795C440.531 374.344 364.713 345.354 297.088 329.288C279.15 325.026 261.793 321.642 245.142 319.925C177.914 312.985 108.566 322.205 43.2209 345.862C31.9859 349.909 20.8338 354.403 9.75891 359.267C-29.7541 376.635 -68.4169 398.796 -106.439 422.928C-129.014 437.271 -150.882 455.496 -175.202 462.75C-190.241 467.244 -205.859 467.178 -223.018 460.304C-238.758 454 -251.611 443.946 -266.164 435.317C-316.354 405.316 -390.489 400.309 -442.584 432.717" stroke="#2EA7E0" stroke-width="0.552088" stroke-miterlimit="10"/>
<path d="M1946.85 20.5822C1853.15 107.172 1743.27 184.79 1620.6 235.836C1571.86 256.313 1521.95 267.89 1471.23 280.737C1411.79 295.787 1350.85 298.818 1289.42 298.713C1247.41 298.652 1205.14 297.04 1162.87 296.516C1079.47 295.478 995.772 299.094 916.018 306.332C869.388 310.561 824.205 316.369 780.789 323.469C749.894 328.521 718.348 334.45 686.404 339.805C641.177 347.385 594.923 353.331 546.687 357.93C529.567 359.564 512.281 361.066 494.901 362.005C422.031 365.687 344.904 338.723 276.153 325.064C257.956 321.448 240.355 318.732 223.456 317.639C155.449 313.244 85.8697 324.987 20.6184 350.957C9.40544 355.402 -1.72467 360.282 -12.7885 365.527C-52.2352 384.248 -90.8704 407.613 -129.202 432.424C-151.97 447.175 -174.169 465.483 -198.903 473.019C-214.207 477.689 -230.085 477.827 -247.465 471.434C-263.547 465.521 -276.897 455.992 -291.88 447.75C-343.512 419.074 -418.215 413.791 -471.546 445.74" stroke="#2EA7E0" stroke-width="0.552088" stroke-miterlimit="10"/>
<path d="M1941.8 23.0336C1850.71 110.672 1742.06 189.041 1620.09 239.894C1570.45 260.796 1519.64 271.926 1468.13 285.541C1408 301.435 1346.23 305.394 1283.93 305.951C1241.32 306.349 1198.41 305.057 1155.51 304.615C1070.87 303.738 985.918 306.542 904.981 312.002C857.662 315.199 811.811 319.676 767.727 325.181C736.291 329.106 704.275 333.76 671.912 337.812C626.039 343.56 579.216 347.584 530.207 351.04C512.844 352.266 495.293 353.464 477.643 354.198C403.508 357.014 325.073 332.071 255.201 320.83C236.75 317.86 218.895 315.806 201.748 315.342C132.974 313.487 63.1513 327.759 -2.01173 356.037C-13.2081 360.873 -24.3161 366.146 -35.3579 371.771C-74.7384 391.845 -113.34 416.419 -151.987 441.903C-174.942 457.064 -197.484 475.459 -222.626 483.271C-238.195 488.119 -254.333 488.461 -271.939 482.548C-288.369 477.027 -302.21 468.028 -317.624 460.161C-370.691 432.81 -445.968 427.245 -500.542 458.736" stroke="#2EA7E0" stroke-width="0.552088" stroke-miterlimit="10"/>
<path d="M1936.75 25.4798C1848.27 114.167 1740.85 193.293 1619.59 243.947C1569.06 265.279 1517.35 275.957 1465.06 290.344C1404.22 307.084 1341.64 311.97 1278.45 313.19C1235.24 314.04 1191.7 313.079 1148.16 312.72C1062.27 312.003 976.068 313.99 893.945 317.684C845.93 319.842 799.411 322.984 754.664 326.898C722.687 329.692 690.202 333.076 657.419 335.831C610.895 339.74 563.509 341.849 513.733 344.167C496.127 344.984 478.311 345.879 460.396 346.409C385.002 348.358 305.264 325.429 234.26 316.607C215.55 314.283 197.452 312.892 180.051 313.057C110.509 313.731 40.4439 330.542 -24.6307 361.133C-35.8105 366.367 -46.8965 372.026 -57.9162 378.032C-97.2304 399.459 -135.805 425.236 -174.755 451.394C-197.904 466.963 -220.777 485.447 -246.333 493.535C-262.167 498.559 -278.564 499.111 -296.391 493.673C-313.169 488.549 -327.518 480.103 -343.346 472.589C-397.909 446.679 -473.694 440.722 -529.516 471.755" stroke="#2EA7E0" stroke-width="0.552088" stroke-miterlimit="10"/>
<path d="M1931.7 27.9252C1845.82 117.667 1739.63 197.538 1619.08 247.999C1567.65 269.756 1515.05 279.981 1461.98 295.142C1400.45 312.72 1337.03 318.539 1272.98 320.422C1229.15 321.73 1184.98 321.095 1140.81 320.814C1053.67 320.256 966.219 321.426 882.914 323.353C834.209 324.48 787.011 326.279 741.607 328.604C709.089 330.265 676.135 332.374 642.938 333.832C595.768 335.902 547.813 336.101 497.264 337.271C479.41 337.686 461.34 338.271 443.148 338.596C366.491 339.679 285.45 318.76 213.319 312.361C194.355 310.677 176.009 309.949 158.353 310.755C88.045 313.946 17.731 333.307 -47.2498 366.206C-58.4075 371.832 -69.4714 377.889 -80.4745 384.271C-119.722 407.05 -158.269 434.03 -197.528 460.867C-220.871 476.845 -244.08 495.412 -270.045 503.781C-286.139 508.982 -302.806 509.749 -320.848 504.775C-337.98 500.055 -352.814 492.127 -369.073 484.988C-425.072 460.404 -501.431 454.171 -558.489 484.745" stroke="#2EA7E0" stroke-width="0.552088" stroke-miterlimit="10"/>
<path d="M1926.65 30.3766C1843.37 121.168 1738.41 201.795 1618.57 252.062C1566.25 274.251 1512.75 284.017 1458.89 299.956C1396.67 318.374 1332.42 325.12 1267.49 327.671C1223.07 329.432 1178.27 329.128 1133.45 328.93C1045.07 328.532 956.37 328.891 871.878 329.045C822.477 329.134 774.611 329.598 728.539 330.332C695.48 330.862 662.057 331.695 628.44 331.856C580.618 332.087 532.101 330.376 480.784 330.398C462.687 330.404 444.352 330.685 425.896 330.812C347.979 331.027 265.635 312.113 192.379 308.149C173.16 307.105 154.566 307.039 136.662 308.48C65.586 314.183 -4.97089 336.101 -69.8634 371.313C-81.0045 377.337 -92.0463 383.779 -103.033 390.543C-142.215 414.68 -180.728 442.858 -220.302 470.375C-243.837 486.761 -267.379 505.416 -293.757 514.061C-310.116 519.433 -327.054 520.421 -345.311 515.916C-362.79 511.605 -378.116 504.19 -394.806 497.432C-452.24 474.178 -529.168 467.658 -587.474 497.775" stroke="#2EA7E0" stroke-width="0.552088" stroke-miterlimit="10"/>
<path d="M1921.6 32.822C1840.93 124.662 1737.11 205.802 1618.06 256.114C1564.81 278.623 1510.45 288.036 1455.82 304.753C1392.89 324.005 1327.83 331.69 1262.02 334.908C1216.99 337.128 1171.55 337.15 1126.1 337.028C1036.48 336.791 946.531 336.333 860.853 334.715C810.762 333.771 762.222 332.882 715.488 332.037C681.888 331.43 647.995 330.988 613.964 329.862C565.491 328.256 516.416 324.634 464.321 323.508C445.98 323.11 427.381 323.083 408.654 323.005C329.473 322.354 245.832 305.438 171.443 303.908C151.971 303.505 133.128 304.102 114.97 306.178C43.1269 314.387 -27.6728 338.867 -92.4715 376.387C-103.596 382.802 -114.616 389.637 -125.58 396.781C-164.696 422.271 -203.182 451.653 -243.065 479.843C-266.793 496.637 -290.671 515.38 -317.459 524.302C-334.082 529.851 -351.285 531.06 -369.758 527.019C-387.59 523.115 -403.402 516.214 -420.517 509.837C-479.386 487.914 -556.888 481.112 -616.431 510.77" stroke="#2EA7E0" stroke-width="0.552088" stroke-miterlimit="10"/>
<path d="M1916.55 35.2682C1838.49 128.163 1735.89 210.048 1617.55 260.167C1563.4 283.101 1508.15 292.056 1452.73 309.551C1389.1 329.636 1323.22 338.26 1256.54 342.141C1210.9 344.813 1164.83 345.166 1118.74 345.128C1027.87 345.045 936.677 343.781 849.811 340.391C799.024 338.409 749.811 336.173 702.42 333.749C668.273 331.999 633.917 330.293 599.467 327.87C550.342 324.419 500.704 318.898 447.836 316.618C429.247 315.817 410.393 315.486 391.396 315.199C310.956 313.681 226.012 298.763 150.492 299.669C130.76 299.906 111.674 301.165 93.2623 303.876C20.6461 314.581 -50.3911 341.633 -115.101 381.466C-126.204 388.274 -137.202 395.5 -148.149 403.025C-187.199 429.868 -225.657 460.459 -265.849 489.322C-289.771 506.52 -313.98 525.352 -341.182 534.555C-358.07 540.28 -375.544 541.715 -394.226 538.132C-412.418 534.643 -428.704 528.244 -446.255 522.249C-506.56 501.65 -584.631 494.573 -645.421 523.767" stroke="#2EA7E0" stroke-width="0.552088" stroke-miterlimit="10"/>
<path d="M1911.5 37.7189C1836.04 131.662 1734.68 214.304 1617.05 264.224C1562.01 287.583 1505.85 296.08 1449.66 314.359C1385.33 335.278 1318.62 344.84 1251.07 349.384C1204.82 352.514 1158.12 353.193 1111.4 353.232C1019.29 353.309 926.839 351.228 838.786 346.071C787.309 343.057 737.423 339.468 689.369 335.466C654.681 332.578 619.855 329.597 584.985 325.882C535.215 320.582 485.008 313.167 431.372 309.733C412.541 308.529 393.422 307.889 374.159 307.398C292.456 305.013 206.214 292.083 129.562 295.434C109.577 296.306 90.2424 298.227 71.5763 301.584C-1.80732 314.779 -73.093 344.41 -137.709 386.556C-148.795 393.761 -159.771 401.38 -170.697 409.28C-209.68 437.475 -248.105 469.27 -288.612 498.812C-312.727 516.418 -337.267 535.338 -364.883 544.818C-382.036 550.72 -399.78 552.387 -418.678 549.256C-437.223 546.181 -453.995 540.291 -471.977 534.676C-533.717 515.402 -612.362 508.043 -674.389 536.785" stroke="#2EA7E0" stroke-width="0.552088" stroke-miterlimit="10"/>
<path d="M1906.45 40.1651C1833.59 135.157 1733.57 218.788 1616.54 268.277C1560.64 292.177 1503.54 300.099 1446.57 319.157C1381.54 340.91 1314.01 351.41 1245.59 356.617C1198.74 360.2 1151.41 361.205 1104.04 361.331C1010.68 361.569 916.984 358.67 827.75 351.742C775.577 347.689 725.023 342.748 676.301 337.172C641.072 333.136 605.777 328.891 570.493 323.889C520.071 316.745 469.301 307.431 414.892 302.843C395.818 301.237 376.434 300.287 356.901 299.591C273.939 296.34 186.394 285.397 108.61 291.2C88.3709 292.712 68.7827 295.291 49.8737 299.288C-24.2829 314.967 -95.8059 347.181 -160.334 391.636C-171.398 399.232 -182.357 407.243 -193.266 415.525C-232.183 445.072 -270.581 478.071 -311.396 508.286C-335.705 526.301 -360.582 545.309 -388.601 555.065C-406.013 561.138 -424.034 563.043 -443.141 560.359C-462.039 557.704 -479.287 552.277 -497.71 547.082C-560.852 529.006 -640.099 521.498 -703.374 549.776" stroke="#2EA7E0" stroke-width="0.552088" stroke-miterlimit="10"/>
<path d="M1901.4 42.6112C1831.15 138.658 1732.35 223.039 1616.03 272.335C1559.24 296.66 1501.25 304.125 1443.49 323.967C1377.76 346.547 1309.41 357.986 1240.11 363.866C1192.65 367.907 1144.69 369.238 1096.69 369.442C1002.08 369.84 907.134 366.13 816.713 357.429C763.851 352.344 712.623 346.045 663.238 338.895C627.469 333.716 591.71 328.196 556.001 321.907C504.932 312.914 453.594 301.706 398.418 295.965C379.101 293.955 359.457 292.696 339.654 291.796C255.427 287.678 166.58 278.712 87.675 286.971C67.176 289.119 47.345 292.354 28.182 296.997C-46.753 315.155 -118.508 349.959 -182.948 396.726C-193.995 404.721 -204.926 413.118 -215.819 421.775C-254.669 452.675 -293.034 486.877 -334.165 517.772C-358.666 536.195 -383.875 555.286 -412.307 565.323C-429.985 571.573 -448.276 573.715 -467.593 571.479C-486.845 569.248 -504.578 564.313 -523.432 559.499C-588.009 542.748 -667.83 534.964 -732.347 562.783" stroke="#2EA7E0" stroke-width="0.552088" stroke-miterlimit="10"/>
<path d="M1896.36 45.0627C1828.71 142.158 1731.14 227.291 1615.52 276.393C1557.85 301.149 1498.95 308.144 1440.41 328.77C1373.98 352.178 1304.81 364.562 1234.64 371.104C1186.57 375.598 1137.98 377.26 1089.35 377.547C993.492 378.105 897.296 373.577 805.694 363.11C752.136 356.987 700.245 349.33 650.193 340.612C613.882 334.285 577.654 327.5 541.53 319.92C489.811 309.071 437.909 295.981 381.96 289.086C362.394 286.673 342.491 285.105 322.418 284.001C236.927 279.016 146.776 272.026 66.7455 282.742C45.9925 285.519 25.9074 289.417 6.49597 294.706C-69.2174 315.332 -141.204 352.736 -205.55 401.811C-216.581 410.197 -227.49 418.987 -238.361 428.024C-277.145 460.277 -315.482 495.688 -356.916 527.251C-381.611 546.083 -407.156 565.263 -435.997 575.576C-453.94 582.002 -472.496 584.387 -492.034 582.593C-511.639 580.793 -529.858 576.348 -549.142 571.915C-615.161 556.484 -695.545 548.424 -761.304 575.791" stroke="#2EA7E0" stroke-width="0.552088" stroke-miterlimit="10"/>
<path d="M1891.3 47.5081C1826.26 145.653 1729.93 231.536 1615.01 280.445C1556.44 305.626 1496.64 312.157 1437.32 333.573C1370.19 357.809 1300.19 371.137 1229.15 378.342C1180.48 383.294 1131.25 385.281 1081.98 385.646C984.885 386.363 887.436 381.025 794.647 368.779C740.398 361.624 687.834 352.603 637.119 342.318C600.273 334.843 563.57 326.788 527.027 317.927C474.662 305.229 422.191 290.25 365.475 282.195C345.666 279.38 325.498 277.503 305.159 276.194C218.41 270.342 126.951 265.329 45.7938 278.507C24.7813 281.919 4.45323 286.474 -15.2122 292.409C-91.7095 315.503 -163.928 355.507 -228.18 406.896C-239.189 415.679 -250.082 424.861 -260.93 434.274C-299.648 467.885 -337.958 504.494 -379.701 536.736C-404.589 555.976 -430.465 575.244 -459.721 585.838C-477.929 592.441 -496.755 595.069 -516.503 593.717C-536.466 592.348 -555.166 588.389 -574.881 584.342C-642.335 570.236 -723.293 561.9 -790.295 588.803" stroke="#2EA7E0" stroke-width="0.552088" stroke-miterlimit="10"/>
<path d="M1886.26 49.9535C1823.82 149.153 1728.71 235.786 1614.51 284.497C1555.04 310.109 1494.34 316.171 1434.25 338.37C1366.41 363.435 1295.6 377.706 1223.68 385.574C1174.4 390.979 1124.55 393.297 1074.64 393.744C976.295 394.622 877.598 388.467 783.627 374.455C728.683 366.262 675.456 355.882 624.073 344.029C586.686 335.405 549.519 326.081 512.551 315.933C459.54 301.38 406.501 284.519 349.012 275.305C328.954 272.092 308.533 269.9 287.918 268.387C199.904 261.668 107.136 258.626 24.8585 274.267C3.59207 278.308 -16.9897 283.526 -36.898 290.112C-114.185 315.674 -186.625 358.278 -250.788 411.974C-261.78 421.15 -272.645 430.723 -283.483 440.517C-322.14 475.481 -360.411 513.294 -402.469 546.215C-427.545 565.864 -453.764 585.214 -483.427 596.09C-501.9 602.87 -520.997 605.747 -540.955 604.825C-561.272 603.892 -580.457 600.419 -600.603 596.747C-669.498 583.967 -751.019 575.354 -819.263 601.799" stroke="#2EA7E0" stroke-width="0.552088" stroke-miterlimit="10"/>
<path d="M1881.21 52.405C1821.37 152.653 1727.5 240.038 1614 288.561C1553.64 314.597 1492.03 320.19 1431.16 343.184C1362.62 369.072 1290.99 384.293 1218.2 392.828C1168.32 398.691 1117.82 401.336 1067.28 401.86C967.693 402.898 867.743 395.925 772.585 380.147C716.951 370.921 663.056 359.173 611 345.757C573.077 335.985 535.441 325.391 498.054 313.957C444.402 297.549 390.783 278.805 332.526 268.432C312.226 264.815 291.539 262.315 270.659 260.598C181.387 253.012 87.3052 251.935 3.90672 270.044C-17.6192 274.72 -38.455 280.594 -58.6062 287.827C-136.683 315.845 -209.343 361.061 -273.418 417.07C-284.394 426.644 -295.237 436.603 -306.052 446.778C-344.643 483.095 -382.886 522.111 -425.254 555.705C-450.523 575.763 -477.073 595.202 -507.151 606.354C-525.883 613.305 -545.25 616.435 -565.429 615.949C-586.094 615.452 -605.77 612.46 -626.341 609.175C-696.677 597.719 -778.767 588.831 -848.253 614.812" stroke="#2EA7E0" stroke-width="0.552088" stroke-miterlimit="10"/>
<path d="M1876.15 54.8503C1818.93 156.148 1726.28 244.288 1613.49 292.613C1552.24 319.08 1489.73 324.203 1428.08 347.982C1358.83 374.692 1286.39 390.862 1212.72 400.06C1162.23 406.376 1111.11 409.346 1059.92 409.959C959.092 411.157 857.899 403.373 761.554 385.816C705.225 375.553 650.667 362.441 597.943 347.463C559.484 336.537 521.374 324.678 483.567 311.963C429.269 293.7 375.081 273.08 316.058 261.541C295.509 257.528 274.562 254.717 253.412 252.796C162.875 244.344 67.4852 245.227 -17.0285 265.809C-38.8139 271.114 -59.8983 277.646 -80.2979 285.529C-159.169 316.005 -232.045 363.832 -296.027 422.155C-306.98 432.12 -317.806 442.472 -328.6 453.028C-367.124 490.697 -405.34 530.916 -448.016 565.19C-473.479 585.656 -500.365 605.183 -530.852 616.611C-549.849 623.739 -569.481 627.123 -589.876 627.068C-610.894 627.013 -631.056 624.501 -652.057 621.591C-723.829 611.46 -806.493 602.29 -877.216 627.819" stroke="#2EA7E0" stroke-width="0.552088" stroke-miterlimit="10"/>
<path d="M1871.11 57.2965C1816.49 159.648 1725.08 248.534 1612.98 296.665C1550.84 323.558 1487.38 328.09 1425 352.78C1354.99 380.18 1281.78 397.427 1207.24 407.293C1156.15 414.067 1104.4 417.363 1052.58 418.053C950.501 419.411 848.056 410.81 750.524 391.487C693.504 380.191 638.284 365.71 584.886 349.169C545.892 337.089 507.312 323.966 469.086 309.965C414.147 289.847 359.358 267.466 299.589 254.646C278.786 250.268 257.591 247.11 236.17 244.984C144.375 235.665 47.6653 238.514 -37.9636 261.569C-60.0085 267.504 -81.3412 274.698 -101.989 283.228C-181.656 316.16 -254.752 366.599 -318.64 427.229C-329.577 437.586 -340.376 448.335 -351.158 459.267C-389.616 498.288 -427.799 539.717 -470.79 574.664C-496.446 595.538 -523.663 615.149 -554.564 626.858C-573.826 634.163 -593.724 637.801 -614.333 638.176C-635.704 638.563 -656.352 636.531 -677.785 634.002C-750.997 625.197 -834.224 615.75 -906.195 640.821" stroke="#2EA7E0" stroke-width="0.552088" stroke-miterlimit="10"/>
<path d="M1866.06 59.748C1814.03 163.149 1723.86 252.786 1612.47 300.724C1549.43 328.046 1485.08 332.121 1421.92 357.589C1351.21 385.822 1277.18 404.008 1201.77 414.537C1150.06 421.763 1097.68 425.391 1045.22 426.164C941.9 427.682 838.206 418.269 739.493 397.173C681.778 384.84 625.901 368.995 571.829 350.892C532.3 337.658 493.278 323.199 454.599 307.984C399.059 285.911 343.651 261.735 283.12 247.767C262.074 242.986 240.615 239.519 218.923 237.189C125.863 227.003 27.8397 231.812 -58.9044 257.34C-81.2088 263.905 -102.795 271.755 -123.681 280.942C-204.148 316.326 -277.454 369.381 -341.253 432.325C-352.174 443.08 -362.951 454.215 -373.711 465.527C-412.103 505.902 -450.258 548.534 -493.558 584.155C-519.407 605.438 -546.956 625.136 -578.271 637.122C-597.798 644.603 -617.96 648.495 -638.791 649.296C-660.51 650.129 -681.649 648.567 -703.512 646.425C-778.16 638.944 -861.961 629.216 -935.174 653.828" stroke="#2EA7E0" stroke-width="0.552088" stroke-miterlimit="10"/>
<path d="M1861.01 62.1934C1811.59 166.643 1722.65 257.036 1611.97 304.781C1548.04 332.529 1482.78 336.145 1418.84 362.391C1347.44 391.464 1272.58 410.583 1196.3 421.78C1143.99 429.465 1090.97 433.418 1037.87 434.268C933.304 435.946 828.363 425.716 728.462 402.854C670.057 389.488 613.517 372.268 558.767 352.608C518.707 338.221 479.211 322.503 440.106 306.001C383.92 282.079 327.944 256.009 266.64 240.888C245.346 235.704 223.627 231.927 201.67 229.393C107.351 218.341 8.00321 225.104 -79.8506 253.111C-102.414 260.305 -124.255 268.812 -145.384 278.651C-226.656 316.485 -300.167 372.158 -363.878 437.409C-374.776 448.556 -385.537 460.084 -396.275 471.777C-434.601 513.504 -472.728 557.339 -516.332 593.639C-542.374 615.331 -570.26 635.118 -601.983 647.38C-621.775 655.037 -642.202 659.189 -663.248 660.414C-685.315 661.701 -706.946 660.608 -729.239 658.841C-805.328 652.685 -889.693 642.681 -964.147 666.835" stroke="#2EA7E0" stroke-width="0.552088" stroke-miterlimit="10"/>
<path d="M1855.96 64.6388C1809.15 170.143 1721.44 261.282 1611.46 308.833C1546.63 337.012 1480.47 340.164 1415.76 367.194C1343.65 397.101 1267.97 417.158 1190.81 429.017C1137.9 437.16 1084.25 441.439 1030.52 442.372C924.707 444.211 818.513 433.163 717.431 408.529C658.33 394.125 601.134 375.542 545.71 354.32C505.115 338.778 465.149 321.807 425.625 304.008C368.799 278.242 312.243 250.273 250.177 234.003C228.64 228.416 206.656 224.33 184.429 221.592C88.8454 209.672 -11.8223 218.395 -100.78 248.876C-123.609 256.699 -145.698 265.864 -167.07 276.354C-249.149 316.634 -322.863 374.929 -386.486 442.494C-397.368 454.038 -408.1 465.952 -418.822 478.026C-457.082 521.111 -495.176 566.145 -539.094 603.124C-565.33 625.224 -593.547 645.093 -625.684 657.637C-645.736 665.466 -666.428 669.888 -687.695 671.533C-710.109 673.267 -732.232 672.643 -754.956 671.263C-832.485 666.432 -917.419 656.152 -993.115 679.842" stroke="#2EA7E0" stroke-width="0.552088" stroke-miterlimit="10"/>
<path d="M1850.91 67.0902C1806.7 173.643 1720.22 265.538 1610.95 312.891C1545.23 341.495 1478.17 344.189 1412.68 371.998C1339.87 402.738 1263.36 423.734 1185.33 436.255C1131.81 444.851 1077.53 449.461 1023.16 450.477C916.1 452.47 808.658 440.617 706.39 414.21C646.598 398.774 588.778 378.728 532.642 356.042C491.544 339.281 451.076 321.117 411.127 302.026C353.655 274.416 296.53 244.543 233.691 227.124C211.906 221.134 189.668 216.739 167.17 213.797C70.3284 201.01 -31.7251 211.528 -121.732 244.653C-144.837 253.061 -167.163 262.927 -188.778 274.068C-271.668 316.8 -345.587 377.712 -409.111 447.584C-419.976 459.52 -430.686 471.832 -441.391 484.281C-479.585 528.719 -517.651 574.956 -561.879 612.609C-588.308 635.112 -616.862 655.075 -649.407 667.895C-669.724 675.9 -690.676 680.582 -712.169 682.652C-734.926 684.844 -757.545 684.684 -780.699 683.685C-859.665 680.179 -945.167 669.617 -1022.11 692.855" stroke="#2EA7E0" stroke-width="0.552088" stroke-miterlimit="10"/>
<path d="M1845.86 69.5364C1804.26 177.138 1719.01 269.784 1610.44 316.944C1543.83 345.978 1475.87 348.214 1409.6 376.801C1336.09 408.375 1258.76 430.304 1179.86 443.494C1125.73 452.548 1070.82 457.483 1015.81 458.577C907.505 460.73 798.809 448.059 695.353 419.886C634.872 403.412 576.389 382.018 519.579 357.754C477.946 339.85 437.009 320.416 396.64 300.039C338.528 270.585 280.823 238.812 217.217 220.24C195.189 213.841 172.686 209.143 149.923 205.996C51.817 192.343 -51.5505 204.848 -142.673 240.419C-166.037 249.468 -188.64 259.941 -210.469 271.772C-294.265 316.784 -368.289 380.484 -431.724 452.669C-442.567 465.003 -453.261 477.701 -463.944 490.526C-502.071 536.316 -540.105 583.763 -584.647 622.089C-611.269 645 -640.154 665.052 -673.114 678.148C-693.696 686.33 -714.907 691.276 -736.621 693.761C-759.72 696.405 -782.836 696.709 -806.416 696.091C-886.822 693.91 -972.892 683.072 -1051.07 705.852" stroke="#2EA7E0" stroke-width="0.552088" stroke-miterlimit="10"/>
<path d="M1840.81 71.9825C1801.81 180.639 1717.79 274.03 1609.93 320.997C1542.43 350.456 1473.57 352.234 1406.51 381.599C1332.3 414.012 1254.16 436.874 1174.37 450.726C1119.64 460.233 1064.09 465.495 1008.45 466.676C898.903 468.989 788.96 455.502 684.322 425.557C623.145 408.05 564 385.304 506.522 359.461C464.354 340.419 422.942 319.716 382.153 298.041C323.395 266.743 265.122 233.071 200.748 213.345C178.471 206.543 155.709 201.536 132.676 198.184C33.3108 183.665 -71.3761 198.162 -163.614 236.174C-187.237 245.857 -210.094 256.993 -232.166 269.47C-316.752 316.983 -390.997 383.245 -454.343 457.743C-465.17 470.469 -475.836 483.559 -486.502 496.765C-524.563 543.908 -562.569 592.558 -607.421 631.563C-634.236 654.883 -663.458 675.018 -696.826 688.395C-717.673 696.753 -739.138 701.965 -761.078 704.869C-784.52 707.972 -808.133 708.739 -832.143 708.502C-913.985 707.641 -1000.62 696.533 -1080.05 718.848" stroke="#2EA7E0" stroke-width="0.552088" stroke-miterlimit="10"/>
<path d="M1835.76 74.4333C1799.37 184.139 1716.58 278.286 1609.42 325.059C1541.03 354.949 1471.26 356.263 1403.43 386.407C1328.52 419.654 1249.55 443.455 1168.9 457.975C1113.56 467.94 1057.38 473.527 1001.1 474.786C890.307 477.259 779.116 462.96 673.286 431.243C611.419 412.698 551.606 388.605 493.455 361.182C450.751 340.998 408.869 319.025 367.656 296.058C308.257 262.916 249.404 227.34 184.263 206.465C161.743 199.26 138.721 193.949 115.417 190.388C14.7883 175.002 -91.2126 191.493 -184.565 231.95C-208.449 242.274 -231.553 254.072 -253.874 267.184C-339.255 317.198 -413.715 386.026 -476.973 462.839C-487.783 475.956 -498.428 489.438 -509.072 503.025C-547.067 551.52 -585.045 601.374 -630.206 641.053C-657.214 664.781 -686.767 685.004 -720.549 698.658C-741.661 707.193 -763.375 712.714 -785.552 715.993C-809.331 719.598 -833.446 720.78 -857.887 720.929C-941.169 721.393 -1028.38 710.008 -1109.04 731.866" stroke="#2EA7E0" stroke-width="0.552088" stroke-miterlimit="10"/>
<path d="M1830.71 76.8794C1796.92 187.634 1715.37 282.532 1608.92 329.112C1539.62 359.427 1468.97 360.283 1400.35 391.211C1324.73 425.291 1244.95 450.031 1163.42 465.213C997.357 496.141 823.631 487.418 662.256 436.918C553.704 402.948 451.452 351.328 353.175 294.066C293.129 259.08 233.708 221.604 167.8 199.576C46.633 159.08 -89.1698 174.892 -205.495 227.71C-321.82 280.528 -419.871 368.073 -499.576 467.918C-571.911 558.521 -636.88 665.163 -744.245 708.91C-867.035 758.941 -1009.72 711.345 -1138 744.862" stroke="#2EA7E0" stroke-width="0.552088" stroke-miterlimit="10"/>
<path d="M1574.38 776.978C1575.74 636.996 1526.24 497.063 1437.17 389.069C1411.83 358.345 1382.11 329.294 1344.64 315.818C1236.35 276.885 1120.72 361.995 1029.68 410.319C919.805 468.631 811.176 529.741 696.778 578.949C632.553 606.575 557.121 630.023 494.995 597.957C432.084 565.483 408.146 489.869 382.137 424.022C351.833 347.293 310.101 273.379 248.841 218.126C187.581 162.873 104.768 127.992 22.7606 136.985C-41.4583 144.03 -99.9742 176.614 -153.411 212.925C-293.813 308.337 -413.091 434.65 -500.316 580.285" stroke="#2EA7E0" stroke-width="0.552088" stroke-miterlimit="10"/>
<path d="M1577.89 770.926C1579.09 647.208 1535.57 526.124 1458.41 422.276C1451.24 412.631 1443.86 403.146 1436.17 393.921C1410.87 363.617 1381.4 334.936 1344.45 321.354C1237.6 282.029 1123.74 362.689 1032.82 409.28C952.218 450.587 872.182 494.202 789.302 533.682C760.55 547.435 731.548 560.679 702.177 573.173C638.466 600.27 563.929 623.402 502.266 592.833C439.83 561.877 415.113 489.189 388.387 425.92C357.238 352.2 315.025 281.157 253.881 228.035C232.593 209.54 208.77 193.419 183.324 180.627C135.712 156.678 82.4137 144.366 29.4519 149.964C-34.1653 156.689 -92.256 187.953 -145.35 222.608C-252.842 292.718 -347.829 379.743 -426.137 479.992C-449.507 509.904 -471.386 540.986 -491.653 573.157" stroke="#2EA7E0" stroke-width="0.552088" stroke-miterlimit="10"/>
<path d="M1581.4 764.88C1582.56 645.287 1536.72 530.911 1457.36 426.693C1450.16 417.236 1442.83 407.872 1435.16 398.785C1409.89 368.906 1380.68 340.589 1344.26 326.898C1238.84 287.175 1126.76 363.391 1035.96 408.253C956.204 447.661 876.869 490.123 794.034 528.769C765.491 542.196 736.705 555.159 707.571 567.409C644.374 593.981 570.725 616.794 509.532 587.721C447.571 558.278 422.075 488.516 394.636 427.83C362.648 357.119 319.944 288.947 258.922 237.962C237.672 220.212 213.965 204.737 188.691 192.464C141.415 169.475 88.6083 157.627 36.1488 162.96C-26.8665 169.37 -84.5267 199.31 -137.284 232.303C-244.136 299.034 -338.498 381.278 -417.033 476.917C-440.469 505.454 -462.492 535.173 -482.986 566.04" stroke="#2EA7E0" stroke-width="0.552088" stroke-miterlimit="10"/>
<path d="M1584.91 758.83C1586.03 643.361 1537.9 535.692 1456.32 431.105C1449.09 421.824 1441.8 412.588 1434.16 403.644C1408.93 374.184 1379.97 346.243 1344.09 332.441C1240.1 292.326 1129.81 364.098 1039.12 407.221C960.218 444.736 881.485 485.844 798.782 523.856C770.415 536.896 741.878 549.638 712.976 561.646C650.292 587.688 577.532 610.186 516.814 582.609C455.327 554.679 429.054 487.848 400.897 429.741C368.064 362.038 324.88 296.737 263.979 247.883C242.762 230.879 219.177 216.05 194.074 204.29C147.13 182.262 94.8247 170.878 42.8566 175.951C-19.557 182.047 -76.7865 210.661 -129.207 241.992C-235.424 305.35 -329.157 382.808 -407.918 473.842C-431.42 501.005 -453.581 529.36 -474.301 558.93" stroke="#2EA7E0" stroke-width="0.552088" stroke-miterlimit="10"/>
<path d="M1588.42 752.784C1589.49 641.439 1539.1 540.467 1455.28 435.521C1448 426.422 1440.76 417.307 1433.14 408.507C1407.94 379.473 1379.25 351.896 1343.89 337.983C1241.34 297.477 1132.86 364.815 1042.25 406.194C964.226 441.826 886.139 481.703 803.508 518.941C775.34 531.639 747.034 544.116 718.364 555.881C656.194 581.399 584.328 603.582 524.073 577.496C463.062 551.084 436.01 487.18 407.136 431.651C373.458 366.957 329.793 304.521 269.009 257.803C247.83 241.539 224.367 227.361 199.429 216.115C152.822 195.053 101.014 184.133 49.5369 188.936C-12.2804 194.711 -69.0794 222.006 -121.158 251.675C-226.734 311.654 -319.843 384.331 -398.836 470.755C-422.41 496.543 -444.709 523.535 -465.656 551.802" stroke="#2EA7E0" stroke-width="0.552088" stroke-miterlimit="10"/>
<path d="M1591.92 746.734C1592.96 639.513 1540.33 545.233 1454.23 439.933C1446.93 431.011 1439.72 422.029 1432.14 413.366C1406.98 384.752 1378.53 357.545 1343.7 343.527C1242.59 302.629 1135.93 365.539 1045.39 405.168C968.251 438.934 890.809 477.569 808.245 514.034C780.276 526.39 752.197 538.602 723.764 550.124C662.107 575.112 591.13 596.98 531.345 572.39C470.808 547.491 442.983 486.518 413.385 433.567C378.869 371.877 334.718 312.318 274.049 267.737C252.91 252.217 229.562 238.686 204.795 227.953C158.525 207.852 107.208 197.395 56.2337 201.939C-4.98184 207.399 -61.35 233.375 -113.092 261.382C-218.027 317.988 -310.513 385.878 -389.732 467.698C-413.373 492.111 -435.815 517.739 -456.988 544.703" stroke="#2EA7E0" stroke-width="0.552088" stroke-miterlimit="10"/>
<path d="M1595.43 740.683C1596.43 637.586 1541.59 549.98 1453.19 444.338C1445.87 435.593 1438.69 426.737 1431.13 418.219C1406.01 390.029 1377.82 363.187 1343.52 349.059C1243.84 307.768 1139.02 366.256 1048.54 404.124C972.298 436.035 895.48 473.416 812.981 509.103C785.211 521.117 757.358 533.064 729.163 544.338C668.019 568.801 597.937 590.349 538.616 567.255C478.554 543.869 449.95 485.827 419.635 435.455C384.274 376.773 339.643 320.085 279.09 277.635C257.989 262.861 234.763 249.975 210.162 239.762C164.222 220.621 113.408 210.628 62.9251 214.907C2.31133 220.052 -53.6319 244.703 -105.031 271.048C-209.326 324.275 -301.188 387.385 -380.634 464.594C-404.346 487.633 -426.927 511.897 -448.32 537.558" stroke="#2EA7E0" stroke-width="0.552088" stroke-miterlimit="10"/>
<path d="M1598.94 734.637C1599.9 635.665 1542.88 554.728 1452.15 448.755C1444.8 440.181 1437.65 431.458 1430.12 423.083C1405.04 395.313 1377.09 368.84 1343.33 354.607C1245.08 312.919 1142.11 367.007 1051.68 403.103C976.35 433.17 900.156 469.293 817.713 504.201C790.142 515.878 762.515 527.549 734.557 538.585C673.927 562.518 604.734 583.752 545.881 562.154C486.294 540.286 456.912 485.165 425.885 437.376C389.684 381.704 344.567 327.886 284.136 287.573C263.074 273.539 239.963 261.304 215.533 251.604C169.931 233.424 119.613 223.9 69.6219 227.914C9.60984 232.739 -45.9027 256.071 -96.9709 280.755C-200.625 330.608 -291.864 388.931 -371.541 461.536C-395.319 483.2 -418.043 506.101 -439.663 530.459" stroke="#2EA7E0" stroke-width="0.552088" stroke-miterlimit="10"/>
<path d="M1602.45 728.586C1603.37 633.737 1544.2 559.454 1451.11 453.166C1443.75 444.763 1436.62 436.178 1429.12 427.941C1404.07 400.596 1376.38 374.493 1343.15 360.15C1246.33 318.07 1145.24 367.758 1054.83 402.07C980.424 430.309 904.832 465.157 822.455 499.282C795.088 510.616 767.683 522.022 739.957 532.815C679.84 556.224 611.541 577.137 553.152 557.041C494.04 536.686 463.879 484.497 432.134 439.286C395.089 386.622 349.487 335.676 289.176 297.493C268.153 284.204 245.164 272.616 220.9 263.429C175.634 246.215 125.813 237.15 76.3132 240.904C16.903 245.415 -38.179 267.421 -88.9104 290.449C-191.925 336.923 -282.539 390.465 -362.443 458.46C-386.293 478.749 -409.155 500.281 -431.001 523.347" stroke="#2EA7E0" stroke-width="0.552088" stroke-miterlimit="10"/>
<path d="M1605.96 722.535C1606.83 631.81 1545.53 564.163 1450.06 457.577C1442.69 449.345 1435.58 440.893 1428.11 432.799C1403.1 405.874 1375.66 380.141 1342.96 365.687C1247.58 323.215 1148.37 368.519 1057.98 401.037C984.51 427.466 909.514 461.033 827.192 494.368C800.024 505.371 772.845 516.501 745.356 527.052C685.753 549.93 618.343 570.529 560.423 551.929C501.786 533.086 470.847 483.829 438.384 441.196C400.494 391.542 354.411 343.466 294.217 307.42C273.232 294.876 250.359 283.934 226.266 275.261C181.331 259.007 132.008 250.411 83.01 253.895C24.2016 258.085 -30.4552 278.772 -80.8443 300.138C-183.218 343.239 -273.208 391.994 -353.339 455.385C-377.255 474.3 -400.261 494.467 -422.328 516.231" stroke="#2EA7E0" stroke-width="0.552088" stroke-miterlimit="10"/>
<path d="M1609.47 716.491C1610.31 629.89 1546.9 568.868 1449.02 461.989C1441.63 453.923 1434.55 445.608 1427.1 437.653C1402.13 411.152 1374.95 385.784 1342.77 371.225C1248.82 328.361 1151.51 369.293 1061.11 400C988.595 424.634 914.19 456.904 831.918 489.444C804.954 500.111 777.995 510.97 750.744 521.278C691.654 543.632 625.139 563.91 567.683 546.806C509.52 529.476 477.803 483.15 444.622 443.096C405.893 396.45 359.325 351.245 299.246 317.331C278.3 305.527 255.543 295.23 231.621 287.076C187.023 271.783 138.197 263.651 89.6903 266.875C31.4781 270.751 -22.7425 290.113 -72.7949 309.817C-174.528 349.539 -263.895 393.508 -344.257 452.294C-368.24 469.834 -391.389 488.638 -413.682 509.098" stroke="#2EA7E0" stroke-width="0.552088" stroke-miterlimit="10"/>
<path d="M1612.97 710.439C1613.77 627.963 1548.29 573.543 1447.98 466.399C1440.58 458.499 1433.51 450.328 1426.1 442.511C1401.15 416.43 1374.23 391.431 1342.59 376.762C1250.08 333.506 1154.67 370.088 1064.26 398.967C992.708 421.824 918.877 452.779 836.66 484.53C809.901 494.865 783.163 505.449 756.149 515.513C697.573 537.337 631.946 557.306 574.965 541.693C517.277 525.881 484.787 482.476 450.883 445.011C411.309 401.369 364.26 359.04 304.304 327.257C283.396 316.198 260.76 306.548 237.004 298.912C192.743 284.58 144.413 276.912 96.3981 279.871C38.7877 283.432 -15.0078 301.468 -64.7178 319.516C-165.811 355.866 -254.553 395.047 -335.142 449.224C-359.196 465.389 -382.483 482.83 -404.998 501.987" stroke="#2EA7E0" stroke-width="0.552088" stroke-miterlimit="10"/>
<path d="M1616.48 704.394C1617.24 626.042 1549.71 578.203 1446.93 470.817C1439.53 463.082 1432.49 455.032 1425.09 447.375C1400.23 421.67 1373.51 397.091 1342.4 382.311C1251.32 338.658 1157.84 370.905 1067.41 397.947C996.827 419.047 923.565 448.678 841.397 479.623C814.842 489.626 788.331 499.928 761.543 509.75C703.48 531.05 638.748 550.698 582.231 536.581C525.018 522.282 491.749 481.809 457.133 446.922C416.714 406.289 369.185 366.831 309.344 337.184C288.475 326.871 265.956 317.866 242.37 310.744C198.441 297.378 150.608 290.173 103.095 292.868C46.0863 296.108 -7.27846 312.826 -56.6517 329.212C-157.104 362.182 -245.223 396.583 -326.038 446.155C-350.159 460.945 -373.589 477.022 -396.33 494.882" stroke="#2EA7E0" stroke-width="0.552088" stroke-miterlimit="10"/>
<path d="M1619.99 698.343C1620.71 624.115 1551.16 582.835 1445.89 475.228C1438.48 467.653 1431.46 459.753 1424.08 452.233C1399.27 426.947 1372.79 402.738 1342.21 387.849C1252.57 343.803 1161.03 371.739 1070.55 396.908C1000.96 416.27 928.246 444.559 846.134 474.703C819.789 484.376 793.493 494.402 766.943 503.98C709.393 524.75 645.549 544.084 589.501 531.463C532.763 518.677 498.716 481.135 463.382 448.827C422.125 411.202 374.11 374.615 314.385 347.099C293.549 337.526 271.156 329.173 247.731 322.564C204.138 310.159 156.802 303.418 109.781 305.847C53.3739 308.773 0.439655 324.165 -48.5968 338.889C-148.409 368.487 -235.904 398.101 -316.95 443.063C-341.143 456.479 -364.712 471.192 -387.679 487.749" stroke="#2EA7E0" stroke-width="0.552088" stroke-miterlimit="10"/>
<path d="M1623.5 692.292C1624.18 622.188 1552.64 587.445 1444.85 479.638C1437.43 472.224 1430.42 464.467 1423.07 457.091C1398.29 432.225 1372.08 408.386 1342.03 393.391C1253.81 348.953 1164.23 372.594 1073.69 395.881C1005.09 413.526 932.939 440.457 850.866 469.789C824.724 479.13 798.649 488.88 772.337 498.216C715.3 518.461 652.351 537.475 596.767 526.35C540.504 515.082 505.678 480.466 469.627 450.737C427.524 416.121 379.023 382.404 319.42 357.025C298.623 348.197 276.346 340.49 253.092 334.395C209.836 322.95 162.997 316.673 116.467 318.843C60.6615 321.454 8.15233 335.521 -40.5474 348.589C-139.719 374.808 -226.59 399.641 -307.863 439.998C-332.122 452.039 -355.834 465.389 -379.022 480.643" stroke="#2EA7E0" stroke-width="0.552088" stroke-miterlimit="10"/>
<path d="M1627.01 686.246C1627.65 620.266 1554.14 592.032 1443.81 484.049C1436.39 476.795 1429.39 469.182 1422.07 461.949C1397.33 437.503 1371.36 414.034 1341.84 398.928C1255.07 354.099 1167.44 373.472 1076.84 394.843C1009.24 410.787 937.632 436.349 855.603 464.87C829.665 473.885 803.811 483.354 777.736 492.447C721.213 512.162 659.153 530.861 604.038 521.233C548.249 511.477 512.645 479.787 475.876 452.641C432.935 421.034 383.948 390.189 324.466 366.94C303.707 358.858 281.552 351.797 258.464 346.221C215.539 335.736 169.197 329.928 123.169 331.833C67.9656 334.124 15.8871 346.872 -32.4759 358.278C-131.007 381.124 -217.254 401.17 -298.754 436.918C-323.084 447.578 -346.934 459.564 -370.349 473.521" stroke="#2EA7E0" stroke-width="0.552088" stroke-miterlimit="10"/>
<path d="M1630.51 680.196C1631.11 618.34 1555.67 596.587 1442.76 488.461C1435.35 481.361 1428.35 473.897 1421.06 466.808C1396.35 442.787 1370.61 419.742 1341.65 404.472C1256.21 359.421 1170.66 374.383 1079.97 393.816C1013.39 408.088 942.319 432.258 860.334 459.956C834.607 468.646 808.968 477.833 783.13 486.683C727.12 505.874 665.955 524.253 611.303 516.121C555.984 507.878 519.607 479.119 482.126 454.552C438.34 425.953 388.872 397.979 329.506 376.867C308.786 369.524 286.747 363.115 263.83 358.052C221.242 348.534 175.396 343.184 129.86 344.824C75.2532 346.8 23.6052 358.223 -24.4154 367.968C-122.306 387.434 -207.93 402.699 -289.661 433.843C-314.058 443.129 -338.051 453.751 -361.692 466.41" stroke="#2EA7E0" stroke-width="0.552088" stroke-miterlimit="10"/>
<path d="M1634.03 674.151C1634.58 616.419 1557.23 601.12 1441.72 492.878C1434.31 485.933 1427.32 478.623 1420.06 471.672C1395.39 448.07 1369.9 425.396 1341.47 410.021C1257.47 364.573 1173.89 375.322 1083.13 392.795C1017.57 405.416 947.029 428.179 865.082 455.054C839.564 463.424 814.141 472.324 788.535 480.931C733.039 499.591 672.762 517.656 618.58 511.025C563.736 504.301 526.585 478.468 488.381 456.479C443.75 430.889 393.803 405.786 334.553 386.805C313.871 380.208 291.948 374.444 269.202 369.895C226.95 361.337 181.602 356.457 136.557 357.832C82.5517 359.488 31.3345 369.597 -16.3494 377.679C-113.6 393.773 -198.605 404.251 -280.557 430.785C-305.025 438.696 -329.152 447.955 -353.018 459.311" stroke="#2EA7E0" stroke-width="0.552088" stroke-miterlimit="10"/>
<path d="M1637.53 668.1C1638.05 614.487 1558.81 605.62 1440.67 497.289C1433.26 490.499 1426.28 483.338 1419.04 476.531C1394.41 453.354 1369.17 431.044 1341.27 415.558C1258.7 369.718 1177.12 376.288 1086.26 391.758C1021.73 402.75 951.71 424.088 869.808 450.13C844.5 458.179 819.292 466.787 793.923 475.156C738.941 493.292 679.558 511.042 625.84 505.902C571.47 500.69 533.542 477.79 494.62 458.378C449.15 435.792 398.716 413.56 339.582 396.715C318.94 390.863 297.138 385.746 274.557 381.71C232.637 374.113 187.785 369.696 143.237 370.806C89.8339 372.148 39.0472 380.931 -8.29989 387.352C-104.91 400.067 -189.291 405.759 -271.469 427.693C-296.004 434.23 -320.274 442.125 -344.367 452.178" stroke="#2EA7E0" stroke-width="0.552088" stroke-miterlimit="10"/>
<path d="M1641.04 662.049C1641.52 612.56 1560.43 610.081 1439.63 501.695C1432.23 495.053 1425.25 488.053 1418.04 481.383C1393.45 458.626 1368.46 436.686 1341.1 421.095C1259.96 374.858 1180.37 377.282 1089.41 390.725C1025.91 400.11 956.419 420.013 874.55 445.216C849.452 452.945 824.459 461.265 799.328 469.386C744.859 486.993 686.365 504.428 633.116 500.784C579.221 497.085 540.515 477.11 500.875 460.283C454.56 440.705 403.646 421.344 344.634 406.636C324.03 401.524 302.344 397.057 279.934 393.541C238.351 386.904 193.996 382.951 149.945 383.802C97.1434 384.829 46.7819 392.287 -0.222881 397.046C-96.1924 406.388 -179.95 407.293 -262.36 424.618C-286.961 429.78 -311.374 436.311 -335.694 445.061" stroke="#2EA7E0" stroke-width="0.552088" stroke-miterlimit="10"/>
<path d="M1644.55 656.003C1644.98 610.638 1562.07 614.514 1438.59 506.111C1431.19 499.619 1424.21 492.773 1417.03 486.247C1392.47 463.915 1367.74 442.34 1340.91 426.638C1261.21 380.003 1183.61 378.319 1092.55 389.692C1030.08 397.493 961.118 415.939 879.282 440.297C854.393 447.706 829.621 455.739 804.722 463.617C750.766 480.699 693.162 497.814 640.387 495.666C586.967 493.485 547.482 476.437 507.124 462.187C459.965 445.619 408.565 429.128 349.674 416.552C329.109 412.185 307.544 408.364 285.301 405.361C244.054 399.691 200.196 396.202 156.637 396.781C104.437 397.488 54.5057 403.627 7.83762 406.73C-87.4915 412.692 -170.625 408.817 -253.262 421.531C-277.934 425.319 -302.486 430.486 -327.026 437.934" stroke="#2EA7E0" stroke-width="0.552088" stroke-miterlimit="10"/>
<path d="M1648.05 649.952C1648.45 608.711 1563.73 618.908 1437.54 510.522C1430.16 504.173 1423.17 497.487 1416.02 491.105C1391.49 469.198 1367.06 447.937 1340.72 432.181C1262.54 384.994 1186.86 379.396 1095.69 388.665C1034.25 394.909 965.816 411.875 884.013 435.388C859.335 442.483 834.778 450.223 810.116 457.858C756.674 474.41 699.963 491.21 647.653 490.559C594.708 489.891 554.444 475.774 513.374 464.103C465.375 450.543 413.49 436.923 354.715 426.483C334.188 422.862 312.739 419.687 290.667 417.197C249.752 412.488 206.396 409.462 163.328 409.783C111.724 410.175 62.2238 414.989 15.8926 416.43C-78.7961 419.019 -161.306 410.357 -244.169 418.467C-268.908 420.88 -293.603 424.678 -318.369 430.834" stroke="#2EA7E0" stroke-width="0.552088" stroke-miterlimit="10"/>
<path d="M1651.57 643.907C1651.92 606.79 1565.42 623.27 1436.5 514.939C1429.12 508.739 1422.14 502.214 1415.02 495.97C1390.52 474.488 1366.34 453.591 1340.53 437.724C1263.79 390.14 1190.11 380.511 1098.84 387.639C1038.43 392.354 970.531 407.823 888.756 430.475C864.287 437.255 839.945 444.703 815.516 452.095C762.587 468.122 706.765 484.602 654.924 485.447C602.453 486.291 561.411 475.106 519.624 466.013C470.78 455.463 418.415 444.714 359.755 436.405C339.262 433.523 317.94 430.994 296.033 429.023C255.455 425.275 212.591 422.713 170.025 422.774C119.023 422.851 69.9532 426.34 23.9587 426.119C-70.0896 425.33 -151.975 411.886 -235.07 415.387C-259.881 416.425 -284.714 418.859 -309.702 423.712" stroke="#2EA7E0" stroke-width="0.552088" stroke-miterlimit="10"/>
<path d="M1655.07 637.856C1655.39 604.864 1567.13 627.582 1435.46 519.345C1428.09 513.289 1421.1 506.923 1414.01 500.822C1389.55 479.766 1365.63 459.234 1340.35 443.262C1265.04 395.285 1193.35 381.665 1101.98 386.601C1042.6 389.809 975.235 403.76 893.487 425.556C869.228 432.021 845.102 439.171 820.909 446.326C768.494 461.823 713.567 477.988 662.19 480.329C610.194 482.692 568.379 474.427 525.868 467.918C476.18 460.376 423.334 452.498 364.796 446.326C344.341 444.189 323.135 442.307 301.4 440.855C261.152 438.067 218.791 435.974 176.716 435.764C126.316 435.521 77.6768 437.691 32.0191 435.809C-61.3888 431.646 -142.651 413.416 -225.972 412.312C-250.849 411.975 -275.825 413.046 -301.039 416.596" stroke="#2EA7E0" stroke-width="0.552088" stroke-miterlimit="10"/>
<path d="M1658.58 631.806C1658.86 602.937 1568.88 631.855 1434.42 523.756C1427.06 517.838 1420.05 511.655 1413 505.681C1388.53 485.094 1364.9 464.882 1340.16 448.805C1266.28 400.436 1196.59 382.869 1105.12 385.574C1046.77 387.297 979.939 399.724 898.224 420.643C874.18 426.799 850.264 433.65 826.309 440.562C774.407 455.535 720.369 471.38 669.46 475.217C617.94 479.092 575.346 473.759 532.117 469.828C481.59 465.29 428.259 460.288 369.837 456.247C349.42 454.856 328.331 453.619 306.766 452.68C266.855 450.859 224.991 449.224 183.407 448.755C133.609 448.198 85.395 449.042 40.0796 445.503C-52.6878 437.962 -133.326 414.951 -216.873 409.237C-241.822 407.525 -266.937 407.233 -292.377 409.48" stroke="#2EA7E0" stroke-width="0.552088" stroke-miterlimit="10"/>
<path d="M1662.09 625.76C1662.33 601.015 1570.65 636.089 1433.37 528.173C1426.03 522.398 1419.02 516.38 1412 510.539C1387.57 490.377 1364.19 470.535 1339.98 454.342C1267.54 405.581 1199.82 384.116 1108.27 384.536C1050.93 384.801 984.648 395.677 902.961 415.723C879.127 421.57 855.426 428.123 831.708 434.787C780.32 449.23 727.176 464.765 676.731 470.093C625.685 475.481 582.313 473.08 538.367 471.727C486.995 470.198 433.183 468.067 374.877 466.157C354.499 465.505 333.531 464.92 312.132 464.495C272.559 463.633 231.185 462.469 190.099 461.729C140.902 460.856 93.1188 460.376 48.1401 455.175C-43.9869 444.261 -124.001 416.463 -207.781 406.145C-232.796 403.058 -258.054 401.402 -283.715 402.352" stroke="#2EA7E0" stroke-width="0.552088" stroke-miterlimit="10"/>
<path d="M1665.6 619.709C1665.8 599.088 1572.45 640.274 1432.34 532.583C1425 526.947 1417.99 521.095 1410.99 515.397C1386.6 495.654 1363.47 476.182 1339.79 459.884C1268.79 410.732 1203.03 385.413 1111.41 383.509C1055.08 382.338 989.352 391.652 907.698 410.809C884.074 416.352 860.588 422.602 837.102 429.023C786.227 442.941 733.972 458.156 683.997 464.986C633.426 471.887 589.275 472.417 544.617 473.643C492.406 475.122 438.108 475.862 379.918 476.088C359.579 476.182 338.726 476.243 317.499 476.331C278.256 476.431 237.385 475.729 196.795 474.73C148.201 473.538 100.842 471.738 56.206 464.875C-35.2805 450.582 -114.671 417.997 -198.677 403.075C-223.758 398.614 -249.16 395.594 -275.047 395.24" stroke="#2EA7E0" stroke-width="0.552088" stroke-miterlimit="10"/>
<path d="M1669.11 613.664C1669.27 597.167 1574.27 644.415 1431.29 537.001C1423.97 531.502 1416.94 525.815 1409.98 520.261C1385.62 500.944 1362.76 481.836 1339.6 465.428C1270.03 415.878 1206.23 386.761 1114.56 382.482C1059.22 379.898 994.066 387.633 912.435 405.902C889.026 411.141 865.75 417.087 842.502 423.265C792.14 436.653 740.779 451.554 691.268 459.879C641.171 468.299 596.242 471.749 550.866 475.559C497.811 480.047 443.027 483.658 384.958 486.015C364.658 486.854 343.927 487.561 322.859 488.163C283.954 489.223 243.579 488.986 203.481 487.721C155.483 486.214 108.561 483.089 64.2611 474.571C-26.5851 456.904 -105.352 419.533 -189.584 400C-214.737 394.164 -240.276 389.781 -266.39 388.125" stroke="#2EA7E0" stroke-width="0.552088" stroke-miterlimit="10"/>
<path d="M1672.62 607.613C1672.74 595.241 1576.11 648.5 1430.25 541.406C1422.94 536.04 1415.92 530.53 1408.98 525.114C1384.65 506.216 1362.04 487.478 1339.42 470.965C1271.28 421.023 1209.41 388.152 1117.71 381.444C1063.35 377.469 998.781 383.614 917.171 400.977C893.973 405.913 870.917 411.55 847.901 417.49C798.053 430.354 747.581 444.934 698.544 454.756C648.923 464.688 603.215 471.07 557.121 477.458C503.221 484.955 447.957 491.437 390.01 495.931C369.748 497.51 349.133 498.868 328.237 499.989C289.668 502.015 249.785 502.241 210.184 500.712C162.787 498.884 116.295 494.44 72.327 484.26C-17.8787 463.22 -96.0213 421.062 -180.485 396.925C-205.705 389.714 -231.388 383.962 -257.722 381.008" stroke="#2EA7E0" stroke-width="0.552088" stroke-miterlimit="10"/>
<path d="M1676.12 601.562C1676.2 593.313 1577.98 652.536 1429.21 545.817C1421.91 540.583 1414.88 535.245 1407.97 529.972C1383.69 511.499 1361.33 493.131 1339.23 476.503C1272.53 426.169 1212.56 389.593 1120.85 380.412C1067.46 375.067 1003.49 379.611 921.909 396.063C898.925 400.701 876.08 406.028 853.3 411.726C803.966 424.06 754.388 438.326 705.816 449.643C656.669 461.088 610.183 470.402 563.371 479.368C508.632 489.874 452.882 499.226 395.05 505.852C374.827 508.176 354.334 510.18 333.603 511.814C295.365 514.801 255.985 515.491 216.88 513.702C170.085 511.56 124.019 505.791 80.3931 493.949C-9.17218 469.53 -86.691 422.591 -171.381 393.844C-196.673 385.259 -222.494 378.142 -249.055 373.891" stroke="#2EA7E0" stroke-width="0.552088" stroke-miterlimit="10"/>
<path d="M1679.63 595.516C1679.67 591.392 1579.87 656.522 1428.16 550.234C1420.87 545.132 1413.84 539.97 1406.96 534.836C1382.71 516.783 1360.6 498.785 1339.04 482.051C1273.77 431.325 1215.67 391.094 1123.98 379.384C1071.54 372.688 1008.21 375.719 926.634 391.149C903.866 395.517 881.23 400.507 858.689 405.962C809.868 417.771 761.179 431.717 713.075 444.531C664.403 457.494 617.144 469.734 569.61 481.278C514.025 494.793 457.795 507.016 400.08 515.778C379.896 518.848 359.518 521.498 338.958 523.645C301.057 527.593 262.174 528.747 223.561 526.693C177.367 524.236 131.732 517.147 88.4426 503.643C-0.482331 475.851 -77.3772 424.126 -162.294 390.774C-187.651 380.814 -213.616 372.334 -240.398 366.78" stroke="#2EA7E0" stroke-width="0.552088" stroke-miterlimit="10"/>
<path d="M1683.14 589.465C1683.14 589.465 1581.79 660.453 1427.12 554.645C1272.45 448.837 1219.2 334.677 931.377 386.236C732.481 421.868 544.849 509.263 344.336 535.471C261.837 546.253 175.374 541.174 96.5141 513.332C8.2296 482.161 -68.0414 425.655 -153.19 387.694C-178.619 376.359 -204.716 366.515 -231.73 359.659" stroke="#2EA7E0" stroke-width="0.552088" stroke-miterlimit="10"/>
</g>
</svg>
