{"accessors":[{"bufferView":0,"componentType":5126,"count":3,"min":[0.0],"max":[0.06666667],"type":"SCALAR","name":"accessorAnimationInput"},{"bufferView":1,"componentType":5126,"count":3,"type":"VEC4","name":"accessorAnimationRotations"},{"bufferView":0,"byteOffset":12,"componentType":5126,"count":3,"min":[0.0],"max":[0.06666667],"type":"SCALAR","name":"accessorAnimationInput"},{"bufferView":1,"byteOffset":48,"componentType":5126,"count":3,"type":"VEC4","name":"accessorAnimationRotations"},{"bufferView":0,"byteOffset":24,"componentType":5126,"count":3,"min":[0.0],"max":[0.06666667],"type":"SCALAR","name":"accessorAnimationInput"},{"bufferView":2,"componentType":5126,"count":3,"type":"VEC3","name":"accessorAnimationPositions"},{"bufferView":0,"byteOffset":36,"componentType":5126,"count":3,"min":[0.0],"max":[0.06666667],"type":"SCALAR","name":"accessorAnimationInput"},{"bufferView":2,"byteOffset":36,"componentType":5126,"count":3,"type":"VEC3","name":"accessorAnimationPositions"},{"bufferView":3,"componentType":5126,"count":97,"min":[-0.03885139524936676,-0.14588236808776856,-0.0399399995803833],"max":[0.10388505458831787,0.1463860273361206,0.2840610444545746],"type":"VEC3","name":"x4_HANDLING_Yoke_2_vertices#0_POSITION"},{"bufferView":3,"byteOffset":12,"componentType":5120,"count":97,"type":"VEC4","name":"x4_HANDLING_Yoke_2_vertices#0_TANGENT"},{"bufferView":3,"byteOffset":16,"componentType":5120,"count":97,"type":"VEC4","name":"x4_HANDLING_Yoke_2_vertices#0_NORMAL"},{"bufferView":3,"byteOffset":20,"componentType":5122,"count":97,"type":"VEC2","name":"x4_HANDLING_Yoke_2_vertices#0_TEXCOORD_0"},{"bufferView":3,"byteOffset":24,"componentType":5122,"count":97,"type":"VEC2","name":"x4_HANDLING_Yoke_2_vertices#0_TEXCOORD_1"},{"bufferView":3,"byteOffset":28,"componentType":5123,"count":97,"type":"VEC4","name":"x4_HANDLING_Yoke_2_vertices#0_COLOR_0"},{"bufferView":4,"componentType":5123,"count":246,"type":"SCALAR","name":"x4_HANDLING_Yoke_2_indices#0"},{"bufferView":3,"byteOffset":3492,"componentType":5126,"count":96,"min":[-0.03954758495092392,-0.1412326544523239,-0.051651351153850558],"max":[0.10388514399528504,0.1491418331861496,0.2838502824306488],"type":"VEC3","name":"x4_HANDLING_Yoke_1_vertices#0_POSITION"},{"bufferView":3,"byteOffset":3504,"componentType":5120,"count":96,"type":"VEC4","name":"x4_HANDLING_Yoke_1_vertices#0_TANGENT"},{"bufferView":3,"byteOffset":3508,"componentType":5120,"count":96,"type":"VEC4","name":"x4_HANDLING_Yoke_1_vertices#0_NORMAL"},{"bufferView":3,"byteOffset":3512,"componentType":5122,"count":96,"type":"VEC2","name":"x4_HANDLING_Yoke_1_vertices#0_TEXCOORD_0"},{"bufferView":3,"byteOffset":3516,"componentType":5122,"count":96,"type":"VEC2","name":"x4_HANDLING_Yoke_1_vertices#0_TEXCOORD_1"},{"bufferView":3,"byteOffset":3520,"componentType":5123,"count":96,"type":"VEC4","name":"x4_HANDLING_Yoke_1_vertices#0_COLOR_0"},{"bufferView":4,"byteOffset":492,"componentType":5123,"count":246,"type":"SCALAR","name":"x4_HANDLING_Yoke_1_indices#0"},{"bufferView":3,"byteOffset":6948,"componentType":5126,"count":20,"min":[-0.035427890717983249,-0.03543248027563095,-0.006829737685620785],"max":[0.03542786091566086,0.03542322665452957,-0.0036076772958040239],"type":"VEC3","name":"x4_INSTRUMENT_AttitudeIndicator_Bank_1_vertices#0_POSITION"},{"bufferView":3,"byteOffset":6960,"componentType":5120,"count":20,"type":"VEC4","name":"x4_INSTRUMENT_AttitudeIndicator_Bank_1_vertices#0_TANGENT"},{"bufferView":3,"byteOffset":6964,"componentType":5120,"count":20,"type":"VEC4","name":"x4_INSTRUMENT_AttitudeIndicator_Bank_1_vertices#0_NORMAL"},{"bufferView":3,"byteOffset":6968,"componentType":5122,"count":20,"type":"VEC2","name":"x4_INSTRUMENT_AttitudeIndicator_Bank_1_vertices#0_TEXCOORD_0"},{"bufferView":3,"byteOffset":6972,"componentType":5122,"count":20,"type":"VEC2","name":"x4_INSTRUMENT_AttitudeIndicator_Bank_1_vertices#0_TEXCOORD_1"},{"bufferView":3,"byteOffset":6976,"componentType":5123,"count":20,"type":"VEC4","name":"x4_INSTRUMENT_AttitudeIndicator_Bank_1_vertices#0_COLOR_0"},{"bufferView":4,"byteOffset":984,"componentType":5123,"count":48,"type":"SCALAR","name":"x4_INSTRUMENT_AttitudeIndicator_Bank_1_indices#0"},{"bufferView":3,"byteOffset":7668,"componentType":5126,"count":1205,"min":[-0.31649792194366457,-0.8711984157562256,-0.8218433856964111],"max":[0.8278467059135437,0.4987841844558716,3.02996826171875],"type":"VEC3","name":"x4_Cabin_vertices#0_POSITION"},{"bufferView":3,"byteOffset":7680,"componentType":5120,"count":1205,"type":"VEC4","name":"x4_Cabin_vertices#0_TANGENT"},{"bufferView":3,"byteOffset":7684,"componentType":5120,"count":1205,"type":"VEC4","name":"x4_Cabin_vertices#0_NORMAL"},{"bufferView":3,"byteOffset":7688,"componentType":5122,"count":1205,"type":"VEC2","name":"x4_Cabin_vertices#0_TEXCOORD_0"},{"bufferView":3,"byteOffset":7692,"componentType":5122,"count":1205,"type":"VEC2","name":"x4_Cabin_vertices#0_TEXCOORD_1"},{"bufferView":3,"byteOffset":7696,"componentType":5123,"count":1205,"type":"VEC4","name":"x4_Cabin_vertices#0_COLOR_0"},{"bufferView":4,"byteOffset":1080,"componentType":5123,"count":2352,"type":"SCALAR","name":"x4_Cabin_indices#0"},{"bufferView":3,"byteOffset":51048,"componentType":5126,"count":4,"min":[-0.10697222501039505,-0.07951286435127258,0.0022084731608629228],"max":[0.10373081266880036,0.08214080333709717,0.0022085625678300859],"type":"VEC3","name":"x4_AS1000_PFD_Screen_1_vertices#0_POSITION"},{"bufferView":3,"byteOffset":51060,"componentType":5120,"count":4,"type":"VEC4","name":"x4_AS1000_PFD_Screen_1_vertices#0_TANGENT"},{"bufferView":3,"byteOffset":51064,"componentType":5120,"count":4,"type":"VEC4","name":"x4_AS1000_PFD_Screen_1_vertices#0_NORMAL"},{"bufferView":3,"byteOffset":51068,"componentType":5122,"count":4,"type":"VEC2","name":"x4_AS1000_PFD_Screen_1_vertices#0_TEXCOORD_0"},{"bufferView":3,"byteOffset":51072,"componentType":5122,"count":4,"type":"VEC2","name":"x4_AS1000_PFD_Screen_1_vertices#0_TEXCOORD_1"},{"bufferView":3,"byteOffset":51076,"componentType":5123,"count":4,"type":"VEC4","name":"x4_AS1000_PFD_Screen_1_vertices#0_COLOR_0"},{"bufferView":4,"byteOffset":5784,"componentType":5123,"count":6,"type":"SCALAR","name":"x4_AS1000_PFD_Screen_1_indices#0"},{"bufferView":3,"byteOffset":51192,"componentType":5126,"count":4,"min":[-0.10697222501039505,-0.07951286435127258,0.0022084731608629228],"max":[0.10373081266880036,0.08214080333709717,0.0022085625678300859],"type":"VEC3","name":"x4_AS1000_PFD_Screen_2_vertices#0_POSITION"},{"bufferView":3,"byteOffset":51204,"componentType":5120,"count":4,"type":"VEC4","name":"x4_AS1000_PFD_Screen_2_vertices#0_TANGENT"},{"bufferView":3,"byteOffset":51208,"componentType":5120,"count":4,"type":"VEC4","name":"x4_AS1000_PFD_Screen_2_vertices#0_NORMAL"},{"bufferView":3,"byteOffset":51212,"componentType":5122,"count":4,"type":"VEC2","name":"x4_AS1000_PFD_Screen_2_vertices#0_TEXCOORD_0"},{"bufferView":3,"byteOffset":51216,"componentType":5122,"count":4,"type":"VEC2","name":"x4_AS1000_PFD_Screen_2_vertices#0_TEXCOORD_1"},{"bufferView":3,"byteOffset":51220,"componentType":5123,"count":4,"type":"VEC4","name":"x4_AS1000_PFD_Screen_2_vertices#0_COLOR_0"},{"bufferView":4,"byteOffset":5796,"componentType":5123,"count":6,"type":"SCALAR","name":"x4_AS1000_PFD_Screen_2_indices#0"}],"animations":[{"name":"HANDLING_YOKE_Lever_StickLR","channels":[{"sampler":0,"target":{"node":2,"path":"rotation"}},{"sampler":1,"target":{"node":6,"path":"rotation"}}],"samplers":[{"input":0,"output":1,"interpolation":"LINEAR"},{"input":2,"output":3,"interpolation":"LINEAR"}]},{"name":"HANDLING_YOKE_Lever_StickForeAft","channels":[{"sampler":0,"target":{"node":5,"path":"translation"}},{"sampler":1,"target":{"node":1,"path":"translation"}}],"samplers":[{"input":4,"output":5,"interpolation":"LINEAR"},{"input":6,"output":7,"interpolation":"LINEAR"}]}],"asset":{"generator":"babylon.js glTF exporter for 3dsmax 2019 v1.0.7954.30439","version":"2.0","extensions":{"ASOBO_asset_optimized":{"BoundingBoxMax":[0.8278467059135437,0.4987841844558716,3.02996826171875],"BoundingBoxMin":[-0.31649792194366457,-0.8711984157562256,-0.8218433856964111],"MajorVersion":4,"MinorVersion":3,"UseCheckerboardMaterialForMissingTextures":true},"ASOBO_normal_map_convention":{"tangent_space_convention":"DirectX"}}},"bufferViews":[{"buffer":0,"byteLength":48,"name":"bufferViewAnimationFloatScalar"},{"buffer":0,"byteLength":96,"byteOffset":48,"name":"bufferViewAnimationFloatVec4"},{"buffer":0,"byteLength":72,"byteOffset":144,"name":"bufferViewAnimationFloatVec3"},{"buffer":0,"byteLength":51336,"byteStride":36,"byteOffset":216,"target":34962,"name":"BufferViewVertexND"},{"buffer":0,"byteLength":5808,"byteOffset":51552,"target":34963,"name":"BufferViewIndex"}],"extensionsRequired":["MSFT_texture_dds"],"materials":[{"name":"Generic_LOD4","occlusionTexture":{"index":0},"pbrMetallicRoughness":{"metallicRoughnessTexture":{"index":0}}},{"name":"Generic_LOD5","occlusionTexture":{"index":2},"pbrMetallicRoughness":{"baseColorTexture":{"index":1},"metallicRoughnessTexture":{"index":2}}},{"name":"$AS1000_PFD_1","emissiveFactor":[1.0,1.0,1.0],"pbrMetallicRoughness":{"baseColorFactor":[0.0,0.0,0.0,1.0]}},{"name":"$AS1000_PFD_2","emissiveFactor":[1.0,1.0,1.0],"pbrMetallicRoughness":{"baseColorFactor":[0.0,0.0,0.0,1.0]}}],"meshes":[{"primitives":[{"attributes":{"COLOR_0":13,"NORMAL":10,"POSITION":8,"TANGENT":9,"TEXCOORD_0":11,"TEXCOORD_1":12},"indices":14,"material":0,"mode":4,"extras":{"ASOBO_primitive":{"PrimitiveCount":82,"VertexType":"VTX","VertexVersion":2}}}],"name":"x4_HANDLING_Yoke_2"},{"primitives":[{"attributes":{"COLOR_0":20,"NORMAL":17,"POSITION":15,"TANGENT":16,"TEXCOORD_0":18,"TEXCOORD_1":19},"indices":21,"material":0,"mode":4,"extras":{"ASOBO_primitive":{"PrimitiveCount":82,"VertexType":"VTX","VertexVersion":2}}}],"name":"x4_HANDLING_Yoke_1"},{"primitives":[{"attributes":{"COLOR_0":27,"NORMAL":24,"POSITION":22,"TANGENT":23,"TEXCOORD_0":25,"TEXCOORD_1":26},"indices":28,"material":1,"mode":4,"extras":{"ASOBO_primitive":{"PrimitiveCount":16,"VertexType":"VTX","VertexVersion":2}}}],"name":"x4_INSTRUMENT_AttitudeIndicator_Bank_1"},{"primitives":[{"attributes":{"COLOR_0":34,"NORMAL":31,"POSITION":29,"TANGENT":30,"TEXCOORD_0":32,"TEXCOORD_1":33},"indices":35,"material":0,"mode":4,"extras":{"ASOBO_primitive":{"PrimitiveCount":784,"VertexType":"VTX","VertexVersion":2}}}],"name":"x4_Cabin"},{"primitives":[{"attributes":{"COLOR_0":41,"NORMAL":38,"POSITION":36,"TANGENT":37,"TEXCOORD_0":39,"TEXCOORD_1":40},"indices":42,"material":2,"mode":4,"extras":{"ASOBO_primitive":{"PrimitiveCount":2,"VertexType":"VTX","VertexVersion":2}}}],"name":"x4_AS1000_PFD_Screen_1"},{"primitives":[{"attributes":{"COLOR_0":48,"NORMAL":45,"POSITION":43,"TANGENT":44,"TEXCOORD_0":46,"TEXCOORD_1":47},"indices":49,"material":3,"mode":4,"extras":{"ASOBO_primitive":{"PrimitiveCount":2,"VertexType":"VTX","VertexVersion":2}}}],"name":"x4_AS1000_PFD_Screen_2"}],"nodes":[{"translation":[-0.276486069,0.338453054,0.6869705],"rotation":[0.0452668369,-0.045265235,0.70565635,0.705656469],"name":"HANDLING_Yoke_Hideable_2","children":[1]},{"translation":[-5.96046448e-8,0.0000294744968,0.0107422471],"name":"HELPER_HANDLING_Yoke_2_ForeAft","children":[2]},{"translation":[0.0,-0.0000294744968,-0.108195066],"name":"HELPER_HANDLING_Yoke_2_LR","children":[3]},{"translation":[-6.556511e-7,-0.0000179708,-0.131751388],"mesh":0,"name":"HANDLING_Yoke_2"},{"translation":[0.278463423,0.338453054,0.6869692],"rotation":[0.0452668369,-0.045265235,0.70565635,0.705656469],"name":"HANDLING_Yoke_Hideable_1","children":[5]},{"translation":[0.0,-0.00105130672,0.01074332],"name":"HELPER_HANDLING_Yoke_1_ForeAft","children":[6]},{"translation":[-1.78813934e-7,0.00105130672,-0.108196318],"rotation":[4.096723e-14,0.0,-3.04625232e-8,1.0],"name":"HELPER_HANDLING_Yoke_1_LR","children":[7]},{"translation":[-4.172325e-7,-0.00000214576721,-0.131749868],"rotation":[-0.0526930355,3.730471e-9,-4.6632187e-10,0.9986108],"scale":[1.0000006,0.999999464,0.9999999],"mesh":1,"name":"HANDLING_Yoke_1"},{"translation":[-0.298015,0.515377462,0.6005135],"rotation":[0.04233305,-8.734441e-8,3.700873e-9,0.9991036],"scale":[0.919899762,0.9198998,0.9198998],"name":"CONTAINER_AttitudeIndicator_KnobPull_1_1","children":[9]},{"translation":[0.00006240606,0.004757166,-0.00080055],"rotation":[0.000296118116,8.962246e-8,-2.10522472e-7,1.0],"scale":[1.0887599,1.0887599,1.0887599],"mesh":2,"name":"INSTRUMENT_AttitudeIndicator_Bank_1"},{"translation":[-0.2541764,0.5487724,-1.98306143],"mesh":3,"name":"Cabin"},{"translation":[0.280216157,0.492237449,0.581072],"rotation":[0.0418756567,0.0,0.0,0.999122858],"name":"CONTAINER_AS1000_PFD_NoAutopilot_1_1","children":[12]},{"name":"CONTAINER_AS1000_PFD_Common_1","children":[13]},{"translation":[-0.00436460972,0.0327134132,0.007773161],"rotation":[0.000376232085,-1.95154587e-11,-9.152147e-10,0.99999994],"scale":[1.0,0.99999994,0.99999994],"mesh":4,"name":"AS1000_PFD_Screen_1"},{"translation":[-0.09652103,0.492239982,0.581099153],"rotation":[0.0418756567,0.0,0.0,0.999122858],"name":"CONTAINER_AS1000_PFD_WithAutopilot_1_1","children":[15]},{"name":"CONTAINER_AS1000_PFD_Common_1_2","children":[16]},{"translation":[-0.00436460972,0.0327134132,0.00777310133],"rotation":[0.000376232085,-1.95154587e-11,-9.152147e-10,0.99999994],"scale":[1.0,0.99999994,0.99999994],"mesh":5,"name":"AS1000_PFD_Screen_2"},{"translation":[0.264116645,0.07719025,0.012013495],"name":"PILOT_0"},{"translation":[-0.255796373,0.07719025,0.012013495],"name":"PILOT_1"}],"scene":0,"scenes":[{"nodes":[0,4,8,10,11,14,17,18]}],"textures":[{"extensions":{"MSFT_texture_dds":{"source":0}}},{"extensions":{"MSFT_texture_dds":{"source":1}}},{"extensions":{"MSFT_texture_dds":{"source":0}}}],"extensionsUsed":["ASOBO_normal_map_convention","MSFT_texture_dds","ASOBO_asset_optimized"],"buffers":[{"byteLength":57360,"uri":"Bonanza_g36_interior_LOD04.bin"}],"images":[{"uri":"ATLAS_COMP.PNG.DDS","extras":"ASOBO_image_converted_meta"},{"uri":"ATLAS_ALBD.PNG.DDS","extras":"ASOBO_image_converted_meta"}]}
