{"accessors":[{"bufferView":0,"componentType":5126,"count":91,"min":[-5.149106979370117,-0.39693400263786318,-5.703099727630615],"max":[5.1490912437438969,1.8837288618087769,2.164792776107788],"type":"VEC3","name":"x6_fuselage_vertices#0_POSITION"},{"bufferView":0,"byteOffset":12,"componentType":5120,"count":91,"type":"VEC4","name":"x6_fuselage_vertices#0_TANGENT"},{"bufferView":0,"byteOffset":16,"componentType":5120,"count":91,"type":"VEC4","name":"x6_fuselage_vertices#0_NORMAL"},{"bufferView":0,"byteOffset":20,"componentType":5122,"count":91,"type":"VEC2","name":"x6_fuselage_vertices#0_TEXCOORD_0"},{"bufferView":0,"byteOffset":24,"componentType":5122,"count":91,"type":"VEC2","name":"x6_fuselage_vertices#0_TEXCOORD_1"},{"bufferView":0,"byteOffset":28,"componentType":5123,"count":91,"type":"VEC4","name":"x6_fuselage_vertices#0_COLOR_0"},{"bufferView":1,"componentType":5123,"count":216,"type":"SCALAR","name":"x6_fuselage_indices#0"}],"asset":{"generator":"babylon.js glTF exporter for 3dsmax 2019 v1.0.7611.18261","version":"2.0","extensions":{"ASOBO_asset_optimized":{"BoundingBoxMax":[5.1490912437438969,1.8837288618087769,2.164792776107788],"BoundingBoxMin":[-5.149106979370117,-0.39693400263786318,-5.703099727630615],"MajorVersion":4,"MinorVersion":2},"ASOBO_normal_map_convention":{"tangent_space_convention":"DirectX"}}},"bufferViews":[{"buffer":0,"byteLength":3276,"byteStride":36,"target":34962,"name":"BufferViewVertexND"},{"buffer":0,"byteLength":432,"byteOffset":3276,"target":34963,"name":"BufferViewIndex"}],"extensionsUsed":["ASOBO_normal_map_convention","MSFT_texture_dds","ASOBO_asset_optimized"],"extensionsRequired":["MSFT_texture_dds"],"materials":[{"name":"LOD6","occlusionTexture":{"index":1},"pbrMetallicRoughness":{"baseColorTexture":{"index":0},"metallicRoughnessTexture":{"index":1}}}],"meshes":[{"primitives":[{"attributes":{"COLOR_0":5,"NORMAL":2,"POSITION":0,"TANGENT":1,"TEXCOORD_0":3,"TEXCOORD_1":4},"indices":6,"material":0,"mode":4,"extras":{"ASOBO_primitive":{"PrimitiveCount":72,"VertexType":"VTX","VertexVersion":2}}}],"name":"x6_fuselage"}],"nodes":[{"translation":[0.0,0.0,0.0],"rotation":[0.0,0.0,0.0,1.0],"scale":[1.0,1.0,1.0],"mesh":0,"name":"fuselage"}],"scene":0,"scenes":[{"nodes":[0]}],"textures":[{"extensions":{"MSFT_texture_dds":{"source":0}}},{"extensions":{"MSFT_texture_dds":{"source":1}}}],"buffers":[{"byteLength":3708,"uri":"Bonanza_g36_LOD06.bin"}],"images":[{"uri":"BONANZA_AIRFRAME_LOD6_ALBD.PNG.DDS","extras":"ASOBO_image_converted_meta"},{"uri":"BONANZA_AIRFRAME_LOD6_COMP.PNG.DDS","extras":"ASOBO_image_converted_meta"}]}
