{"accessors":[{"bufferView":0,"componentType":5126,"count":2,"min":[0.0],"max":[16.666666],"type":"SCALAR","name":"accessorAnimationInput"},{"bufferView":1,"componentType":5126,"count":2,"type":"VEC3","name":"accessorAnimationScales"},{"bufferView":2,"componentType":5126,"count":402,"min":[-5.1476263999938969,-5.703099727630615,-1.5095103979110718],"max":[5.150571823120117,2.1647932529449465,0.7923088669776917],"type":"VEC3","name":"x6_Fuselage_vertices#0_POSITION"},{"bufferView":2,"byteOffset":12,"componentType":5120,"count":402,"type":"VEC4","name":"x6_Fuselage_vertices#0_TANGENT"},{"bufferView":2,"byteOffset":16,"componentType":5120,"count":402,"type":"VEC4","name":"x6_Fuselage_vertices#0_NORMAL"},{"bufferView":2,"byteOffset":20,"componentType":5122,"count":402,"type":"VEC2","name":"x6_Fuselage_vertices#0_TEXCOORD_0"},{"bufferView":2,"byteOffset":24,"componentType":5122,"count":402,"type":"VEC2","name":"x6_Fuselage_vertices#0_TEXCOORD_1"},{"bufferView":2,"byteOffset":28,"componentType":5123,"count":402,"type":"VEC4","name":"x6_Fuselage_vertices#0_COLOR_0"},{"bufferView":3,"componentType":5123,"count":402,"type":"SCALAR","name":"x6_Fuselage_indices#1"}],"animations":[{"name":"All Animations","channels":[{"sampler":0,"target":{"node":0,"path":"scale"}}],"samplers":[{"input":0,"output":1,"interpolation":"LINEAR"}]}],"asset":{"generator":"babylon.js glTF exporter for 3dsmax 2019 v1.5.0","version":"2.0","extensions":{"ASOBO_asset_optimized":{"BoundingBoxMax":[5.150571823120117,2.1647932529449465,0.7923088669776917],"BoundingBoxMin":[-5.1476263999938969,-5.703099727630615,-1.5095103979110718],"MajorVersion":4,"MinorVersion":2},"ASOBO_normal_map_convention":{"tangent_space_convention":"DirectX"}}},"bufferViews":[{"buffer":0,"byteLength":8,"name":"bufferViewAnimationFloatScalar"},{"buffer":0,"byteLength":24,"byteOffset":8,"name":"bufferViewAnimationFloatVec3"},{"buffer":0,"byteLength":14472,"byteStride":36,"byteOffset":32,"target":34962,"name":"BufferViewVertexND"},{"buffer":0,"byteLength":804,"byteOffset":14504,"target":34963,"name":"BufferViewIndex"}],"extensionsUsed":["ASOBO_normal_map_convention","MSFT_texture_dds","ASOBO_asset_optimized"],"extensionsRequired":["MSFT_texture_dds"],"materials":[{"name":"fuselage","normalTexture":{"index":2},"occlusionTexture":{"index":1},"pbrMetallicRoughness":{"baseColorTexture":{"index":0},"metallicRoughnessTexture":{"index":1}}},{"name":"wings","normalTexture":{"index":5},"occlusionTexture":{"index":4},"pbrMetallicRoughness":{"baseColorTexture":{"index":3},"metallicRoughnessTexture":{"index":4}}}],"meshes":[{"primitives":[{"attributes":{"COLOR_0":7,"NORMAL":4,"POSITION":2,"TANGENT":3,"TEXCOORD_0":5,"TEXCOORD_1":6},"indices":8,"material":0,"mode":4,"extras":{"ASOBO_primitive":{"PrimitiveCount":86,"VertexType":"VTX","VertexVersion":2}}},{"attributes":{"COLOR_0":7,"NORMAL":4,"POSITION":2,"TANGENT":3,"TEXCOORD_0":5,"TEXCOORD_1":6},"indices":8,"material":1,"mode":4,"extras":{"ASOBO_primitive":{"PrimitiveCount":48,"StartIndex":258,"VertexType":"VTX","VertexVersion":2}}}],"name":"x6_Fuselage"}],"nodes":[{"translation":[-0.001480736,0.37421757,1.635757e-8],"rotation":[0.7071068,0.0,0.0,0.7071067],"scale":[1.0,1.0,1.0],"mesh":0,"name":"Fuselage"}],"scene":0,"scenes":[{"nodes":[0]}],"textures":[{"extensions":{"MSFT_texture_dds":{"source":0}}},{"extensions":{"MSFT_texture_dds":{"source":1}}},{"extensions":{"MSFT_texture_dds":{"source":2}}},{"extensions":{"MSFT_texture_dds":{"source":3}}},{"extensions":{"MSFT_texture_dds":{"source":4}}},{"extensions":{"MSFT_texture_dds":{"source":5}}}],"buffers":[{"byteLength":15308,"uri":"Bonanza_g36_LOD6.bin"}],"images":[{"uri":"BONANZA_AIRFRAME_FUSELAGE_ALBD.PNG.DDS","extras":"ASOBO_image_converted_meta"},{"uri":"BONANZA_AIRFRAME_FUSELAGE_COMP.PNG.DDS","extras":"ASOBO_image_converted_meta"},{"uri":"BONANZA_AIRFRAME_FUSELAGE_NORM.PNG.DDS","extras":"ASOBO_image_converted_meta"},{"uri":"BONANZA_AIRFRAME_WINGS_ALBD.PNG.DDS","extras":"ASOBO_image_converted_meta"},{"uri":"BONANZA_AIRFRAME_WINGS_COMP.PNG.DDS","extras":"ASOBO_image_converted_meta"},{"uri":"BONANZA_AIRFRAME_WINGS_NORM.PNG.DDS","extras":"ASOBO_image_converted_meta"}]}
